<svg version="1.2" xmlns="http://www.w3.org/2000/svg" viewBox="0 0 1000 1000" width="1000" height="1000">
	<title>5620545</title>
	<style>
		.s0 { fill: #97cadb } 
		.s1 { fill: #018abe } 
		.s2 { fill: #ffffff } 
		.s3 { fill: #333333 } 
	</style>
	<g id="OBJECTS">
		<g id="&lt;Group&gt;">
			<g id="&lt;Group&gt;">
				<path id="&lt;Path&gt;" class="s0" d="m429.3 887.5c-8 0.7-16.1-0.9-23.1-4.8l-287.5-152.3 537.4-29.9c3-0.1 6 0.3 8.9 1.2l328 111.4z"/>
				<path id="&lt;Path&gt;" fill-rule="evenodd" class="s0" d="m635.8 221.9c-19.7 0-35.6-15.9-35.6-35.6 0-19.7 15.9-35.6 35.6-35.6 19.7 0 35.6 15.9 35.6 35.6 0 19.7-15.9 35.6-35.6 35.6z"/>
				<path id="&lt;Path&gt;" class="s1" d="m485.6 510.3c9.9 68-31.5 119.2-92.5 114.5-61-4.7-118.4-63.6-128.3-131.5-9.9-67.9 31.5-119.2 92.5-114.5 60.9 4.7 118.4 63.6 128.3 131.5z"/>
				<g id="&lt;Group&gt;">
					<path id="&lt;Path&gt;" class="s2" d="m114.4 735c-12.6 0-23.3-8.6-25.9-21l-88-421c-1.8-9.5 1-19.2 7.7-26.7 6.8-7.7 16.4-11.8 26.5-11.2l387 35.6c2.7 0.3 4.8 2.7 4.5 5.5-0.2 2.7-2.7 4.7-5.4 4.5l-386.9-35.7c-6.8-0.4-13.5 2.5-18.3 7.9-4.6 5.2-6.5 11.8-5.3 18.2l88 420.8c1.6 8.1 8.8 13.6 17.1 13.1l532.4-30.5c2-0.1 3.9-1.1 5.2-2.7 1.3-1.6 1.8-3.6 1.5-5.6l-36.2-222.7c-0.5-2.7 1.4-5.2 4.1-5.7 2.7-0.4 5.3 1.4 5.7 4.1l36.2 222.7c0.8 4.7-0.5 9.7-3.6 13.4-3 3.8-7.5 6.2-12.3 6.4l-532.5 30.6q-0.8 0-1.5 0z"/>
				</g>
				<g id="&lt;Group&gt;">
					<path id="&lt;Compound Path&gt;" fill-rule="evenodd" class="s2" d="m146.8 680.6c-4.1 0-7.8-2.9-8.6-7l-75.9-355.6c-0.5-2.8 0.2-5.5 2.1-7.5 1.8-2.1 4.5-3.2 7.2-3l311.9 24.4c2.8 0.2 4.8 2.6 4.6 5.4-0.2 2.7-2.6 4.8-5.4 4.5l-310.3-24.3 75.4 353.2 465.5-23.9-23.2-138.8c-0.5-2.7 1.3-5.3 4-5.8 2.7-0.4 5.3 1.4 5.8 4.1l23.4 140.2c0.3 2.5-0.3 4.9-1.9 6.8-1.7 2-4.3 3.3-7.1 3.5l-467 23.8q-0.2 0-0.5 0zm1.2-9q0 0 0 0zm465.5-23.6z"/>
				</g>
				<g id="&lt;Group&gt;">
					<path id="&lt;Compound Path&gt;" fill-rule="evenodd" class="s2" d="m410.3 927c-8.9 0-17.7-2.3-25.4-6.5l-273.5-153c-8.9-4.9-15-13.5-16.9-23.5-0.8-4.4 0.3-9 3.1-12.6 2.8-3.6 7-5.7 11.5-6l546.7-31.4c4.3-0.2 8.5 0.3 12.5 1.7l318.7 106.8c6.2 2.1 10.8 6.6 12.4 12.1 1.4 4.8 0.3 9.8-3 13.7l-6 7.2c-6.7 8-17.3 13.3-29.2 14.5l-545.7 76.7q-2.6 0.3-5.2 0.3zm247.5-223.1q-0.7 0-1.4 0.1l-546.7 31.3c-1.7 0.1-3.2 0.9-4.2 2.3-1.1 1.3-1.5 2.9-1.2 4.6 1.3 7.1 5.7 13.1 11.9 16.6l273.5 153c7.4 4.1 16.2 5.9 24.6 5.1l545.7-76.8q0.1 0 0.2 0c9.3-0.9 17.5-4.9 22.6-11l6-7.2c1.1-1.4 1.5-3 1.1-4.6-0.7-2.3-3-4.3-6.1-5.4l-318.7-106.8q-3.6-1.2-7.3-1.2z"/>
				</g>
				<g id="&lt;Group&gt;">
					<path id="&lt;Path&gt;" class="s2" d="m263.8 759.4l72.8 36.3c2.8 1.4 6 2.1 9.1 1.8l408.2-30.8c1.3-0.1 1.5-1.9 0.3-2.4l-90.5-30.4c-2.6-0.9-5.6-1.4-8.4-1.2l-391.3 26c-0.4 0-0.6 0.5-0.2 0.7z"/>
					<path id="&lt;Compound Path&gt;" fill-rule="evenodd" class="s2" d="m344.4 799.3c-3 0-5.9-0.7-8.6-2l-72.8-36.3c-0.8-0.4-1.3-1.4-1.1-2.4 0.2-0.9 1-1.6 2-1.7l391.2-25.9c3.2-0.2 6.3 0.2 9.2 1.3l90.4 30.4c1.4 0.4 2.2 1.7 2.1 3.2-0.2 1.4-1.3 2.4-2.8 2.6l-408.1 30.8q-0.8 0-1.5 0zm-75.3-39.2l68.3 34c2.5 1.3 5.3 1.9 8.2 1.7l405.5-30.6-87.9-29.6c-2.5-0.9-5.2-1.3-7.8-1.1zm-5 0.3q0 0 0 0z"/>
				</g>
				<g id="&lt;Group&gt;">
					<path id="&lt;Path&gt;" class="s2" d="m596.7 797.8c-1.1 0.1-1.3 1.4-0.3 1.9l49.3 21.8c1.8 0.8 3.7 1.1 5.7 0.9l78.1-9.3c1.2-0.1 1.3-1.5 0.2-1.9l-49.7-18.2c-1-0.4-2-0.5-3-0.4z"/>
					<path id="&lt;Compound Path&gt;" fill-rule="evenodd" class="s2" d="m650.4 824.2c-1.9 0-3.7-0.4-5.4-1.1l-49.3-21.8c-1.2-0.6-1.9-1.7-1.6-3 0.2-1.2 1.2-2.1 2.5-2.2q0 0 0 0l80.3-5.3c1.2-0.1 2.5 0.1 3.7 0.5l49.7 18.3c1.3 0.4 2.1 1.7 1.9 3-0.2 1.2-1.2 2.2-2.5 2.3l-78.1 9.2q-0.6 0.1-1.2 0.1zm-50.3-24.8l46.3 20.5c1.5 0.6 3.2 0.9 4.8 0.8l74.9-8.9-46.7-17.2c-0.8-0.2-1.5-0.3-2.3-0.3zm129.3 12q0 0 0 0z"/>
				</g>
				<filter id="f0">
					<feFlood flood-color="#ffffff" flood-opacity="1" />
					<feBlend mode="normal" in2="SourceGraphic"/>
					<feComposite in2="SourceAlpha" operator="in" />
				</filter>
				<g id="&lt;Group&gt;" filter="url(#f0)">
					<g id="&lt;Group&gt;">
						<g id="&lt;Group&gt;">
							<path id="&lt;Path&gt;" class="s3" d="m300.9 667.5q-1.2 0-2.3-0.5c-2.4-1.3-3.4-4.3-2.2-6.7l62-122.8c1.3-2.5 4.3-3.5 6.7-2.2 2.5 1.2 3.4 4.2 2.2 6.6l-62 122.9c-0.9 1.7-2.6 2.7-4.4 2.7z"/>
						</g>
						<g id="&lt;Group&gt;">
							<path id="&lt;Path&gt;" class="s3" d="m205.6 672.3q-1.1 0-2.3-0.6c-2.4-1.2-3.4-4.2-2.1-6.7l105.6-204.6c0.9-1.6 2.6-2.6 4.5-2.6h90.4c2.8 0 5 2.2 5 4.9 0 2.8-2.2 5-5 5h-87.4l-104.3 201.9c-0.8 1.7-2.6 2.7-4.4 2.7z"/>
						</g>
					</g>
					<g id="&lt;Group&gt;">
						<path id="&lt;Path&gt;" class="s3" d="m489 597.9h-90.5c-1.7 0-3.2-0.9-4.2-2.3-0.9-1.5-1-3.3-0.3-4.8l127.1-268.1c1.2-2.4 4.2-3.5 6.7-2.3 2.5 1.2 3.5 4.1 2.3 6.6l-123.7 260.9h79.5l113.4-230.6c1.2-2.5 4.2-3.5 6.6-2.3 2.5 1.2 3.5 4.2 2.3 6.7l-114.7 233.4c-0.9 1.7-2.6 2.8-4.5 2.8z"/>
					</g>
					<g id="&lt;Group&gt;">
						<path id="&lt;Path&gt;" class="s3" d="m398.6 597.9c-1.7 0-3.2-0.8-4.2-2.2l-87.3-130.2c-1-1.5-1.1-3.5-0.2-5.1 0.8-1.6 2.5-2.6 4.4-2.6h90.4c1.6 0 3.1 0.7 4 2l34.8 46.9c1.6 2.2 1.2 5.3-1 7-2.2 1.6-5.3 1.1-7-1.1l-33.3-44.9h-78.6l82.1 122.4c1.5 2.3 0.9 5.4-1.4 6.9-0.8 0.6-1.8 0.9-2.7 0.9z"/>
					</g>
				</g>
				<filter id="f1">
					<feFlood flood-color="#ffffff" flood-opacity="1" />
					<feBlend mode="normal" in2="SourceGraphic"/>
					<feComposite in2="SourceAlpha" operator="in" />
				</filter>
				<g id="&lt;Group&gt;" filter="url(#f1)">
					<g id="&lt;Group&gt;">
						<path id="&lt;Path&gt;" class="s3" d="m634.8 376.7c-2.9 0-5.9-0.6-8.7-1.9l-24.4-10.8c-1.2-0.5-2.1-1.5-2.6-2.7-0.5-1.3-0.4-2.6 0.1-3.8l26.2-59.1c1.1-2.5 4-3.7 6.5-2.5 2.5 1.1 3.7 4 2.5 6.5l-24.1 54.5 19.9 8.8c5.3 2.4 11.6 0.4 14.6-4.7l17.6-29.9c14-23.8 12.1-53.4-4.7-75.2-1.7-2.2-1.3-5.3 0.9-7 2.2-1.7 5.3-1.3 7 0.9 19.3 25.1 21.4 59 5.3 86.4l-17.6 29.9c-3.9 6.7-11.1 10.6-18.5 10.6z"/>
					</g>
					<g id="&lt;Group&gt;">
						<path id="&lt;Path&gt;" class="s3" d="m525.6 329.9q-1 0-2-0.5l-24.4-10.8c-9.9-4.4-15-15.6-11.8-26l10.3-33.1c9.5-30.4 36-51.6 67.7-54.1 2.7-0.2 5.1 1.8 5.3 4.6 0.2 2.7-1.8 5.1-4.5 5.3-27.6 2.2-50.7 20.7-59 47.1l-10.3 33.2c-1.7 5.6 1 11.6 6.4 13.9l19.8 8.8 24.1-54.5c1.2-2.5 4.1-3.6 6.6-2.5 2.5 1.1 3.7 4 2.5 6.5l-26.1 59.1c-0.5 1.2-1.5 2.1-2.8 2.6q-0.8 0.4-1.8 0.4z"/>
					</g>
					<g id="&lt;Group&gt;">
						<path id="&lt;Path&gt;" class="s3" d="m593.1 331.1q-1 0-2-0.5l-35.6-15.7c-2.5-1.1-3.7-4.1-2.6-6.6 1.2-2.5 4.1-3.6 6.6-2.5l35.6 15.7c2.5 1.2 3.7 4.1 2.6 6.6-0.9 1.9-2.7 3-4.6 3z"/>
					</g>
					<g id="&lt;Group&gt;">
						<path id="&lt;Path&gt;" class="s3" d="m600 304.9q-1 0-2-0.5l-24.7-10.9c-2.5-1.1-3.7-4.1-2.5-6.6 1.1-2.5 4-3.6 6.5-2.5l24.7 10.9c2.5 1.1 3.7 4.1 2.5 6.6-0.8 1.9-2.6 3-4.5 3z"/>
					</g>
					<g id="&lt;Group&gt;">
						<path id="&lt;Path&gt;" class="s3" d="m629.9 305.4c-1 0-1.9-0.3-2.8-0.9-2.2-1.5-2.9-4.6-1.3-6.9l61.3-92.1c18.2-29.2 19.9-66.6 4.2-97.5l-12.2-24.2-26.1 7.2c-33.4 9.2-60 35.5-69.5 68.8l-26.9 107.2c-0.7 2.7-3.4 4.3-6 3.6-2.7-0.6-4.3-3.3-3.6-6l26.9-107.4c10.5-36.7 39.8-65.7 76.5-75.8l30-8.2c2.3-0.7 4.7 0.4 5.7 2.5l14.1 27.8c17.2 33.9 15.4 75.1-4.7 107.4l-61.5 92.3c-0.9 1.4-2.5 2.2-4.1 2.2z"/>
					</g>
					<g id="&lt;Group&gt;">
						<path id="&lt;Path&gt;" class="s3" d="m705.5 176c-1.8 0-3.5-0.9-4.4-2.7-18.3-35.4-64.5-55.9-103.1-45.6-2.6 0.7-5.3-0.8-6-3.5-0.8-2.7 0.8-5.4 3.5-6.1 42.8-11.4 94.1 11.3 114.4 50.7 1.3 2.4 0.3 5.4-2.1 6.7q-1.1 0.6-2.3 0.5z"/>
					</g>
					<g id="&lt;Group&gt;">
						<path id="&lt;Path&gt;" class="s3" d="m529.9 419.6q-1.2 0-2.2-0.5c-2.5-1.2-3.5-4.2-2.3-6.7l24-49c1.2-2.4 4.2-3.4 6.7-2.2 2.4 1.2 3.5 4.1 2.2 6.6l-24 49c-0.8 1.8-2.6 2.8-4.4 2.8z"/>
					</g>
					<g id="&lt;Group&gt;">
						<path id="&lt;Path&gt;" class="s3" d="m513 450.9q-1.1 0-2.2-0.5c-2.4-1.2-3.5-4.2-2.2-6.6l5.1-10.6c1.3-2.5 4.2-3.5 6.7-2.3 2.5 1.2 3.5 4.2 2.3 6.7l-5.2 10.5c-0.9 1.8-2.6 2.8-4.5 2.8z"/>
					</g>
				</g>
			</g>
		</g>
	</g>
</svg>